<svg width="321" height="381" viewBox="0 0 321 381" fill="none" xmlns="http://www.w3.org/2000/svg">
<path d="M303.963 336.517C303.028 335.127 301.526 334.22 299.86 334.04H299.1C200.263 334.145 120.055 254.107 119.95 155.27C119.889 97.9782 147.262 44.1202 193.58 10.4002C196.187 8.65515 196.886 5.12715 195.141 2.52015C194.079 0.933153 192.29 -0.0138469 190.38 0.00015309L190.42 0.0401531C85.265 0.0291531 0.0110011 85.2652 1.06457e-06 190.42C-0.0109989 295.575 85.225 380.829 190.38 380.84C230.64 380.844 269.865 368.087 302.42 344.4C305.023 342.649 305.714 339.12 303.963 336.517Z" fill="white"/>
<path d="M242.849 223.354C242.17 222.777 241.366 222.369 240.5 222.16L240.46 222.08L225.1 218.4L216.86 205.04C215.236 202.356 211.744 201.496 209.06 203.12C208.274 203.595 207.615 204.254 207.14 205.04L198.82 218.4L183.7 222.08C180.619 222.67 178.6 225.646 179.19 228.727C179.376 229.7 179.814 230.608 180.46 231.36L190.7 243.36L189.5 259.12C189.221 262.245 191.527 265.004 194.652 265.283C195.627 265.37 196.608 265.204 197.5 264.8L212.14 258.8L226.46 264.68C229.32 265.968 232.683 264.694 233.972 261.834C234.355 260.983 234.523 260.051 234.46 259.12L233.26 243.36L243.5 231.36C245.531 228.969 245.24 225.385 242.849 223.354Z" fill="white"/>
<path d="M267.529 78.3941C266.85 77.8171 266.046 77.4091 265.18 77.2001L265.26 77.4001L239.02 71.0001L224.86 48.0801C223.236 45.3961 219.744 44.5361 217.06 46.1601C216.274 46.6351 215.615 47.2941 215.14 48.0801L200.94 71.0801L174.94 77.4401C171.876 78.1141 169.939 81.1441 170.613 84.2081C170.788 85.0021 171.131 85.7501 171.62 86.4001L189.1 107L187.06 133.96C186.781 137.085 189.087 139.844 192.212 140.123C193.187 140.21 194.168 140.044 195.06 139.64L220.06 129.4L244.74 139.52C247.6 140.808 250.963 139.534 252.252 136.674C252.635 135.823 252.803 134.891 252.74 133.96L250.7 107L268.18 86.4001C270.211 84.0091 269.92 80.4251 267.529 78.3941Z" fill="white"/>
<path d="M318.289 170.354C317.61 169.777 316.806 169.369 315.94 169.16L315.78 169.08L303.78 166.2L297.42 155.88C295.796 153.196 292.304 152.336 289.62 153.96C288.834 154.435 288.175 155.094 287.7 155.88L281.42 166.4L269.82 169.24C266.745 169.859 264.753 172.853 265.372 175.929C265.554 176.836 265.955 177.684 266.54 178.4L274.54 187.72L273.62 199.72C273.341 202.845 275.647 205.604 278.772 205.883C279.747 205.97 280.728 205.804 281.62 205.4L292.9 200.76L303.86 205.24C306.72 206.528 310.083 205.254 311.372 202.394C311.755 201.543 311.923 200.611 311.86 199.68L310.94 187.68L318.94 178.36C320.971 175.969 320.68 172.385 318.289 170.354Z" fill="white"/>
</svg>
