<svg width="511" height="512" viewBox="0 0 511 512" fill="none" xmlns="http://www.w3.org/2000/svg">
<path d="M151.469 214.676C155.813 162.597 189.844 118.836 236.543 100.386C223.731 94.9138 209.801 91.9998 195.5 91.9998C137.879 91.9998 91.0002 138.879 91.0002 196.5C91.0002 212.406 94.5276 227.711 101.129 241.543C115.305 228.871 132.485 219.496 151.469 214.676Z" fill="#163C6E"/>
<path d="M406 211C400.645 211 395.336 211.398 390.094 212.199C383.317 160.801 339.219 121 286 121C228.102 121 181 168.101 181 226C181 231.054 181.356 236.062 182.063 241.004C181.707 241 181.356 241 181 241C131.375 241 91.0002 281.371 91.0002 331C91.0002 380.625 131.375 420.996 181 420.996H406C463.895 420.996 510.996 373.894 510.996 316C510.996 258.101 463.895 211 406 211Z" fill="#163C6E"/>
<path d="M186.532 452.495C179.075 448.886 170.106 452.007 166.496 459.464L151.496 490.464C147.887 497.921 151.008 506.89 158.465 510.499C160.571 511.519 162.797 511.999 164.989 511.999C170.559 511.999 175.91 508.882 178.5 503.53L193.5 472.53C197.11 465.073 193.989 456.101 186.532 452.495V452.495Z" fill="#163C6E"/>
<path d="M262.531 452.495C255.074 448.886 246.106 452.007 242.496 459.464L227.496 490.464C223.887 497.921 227.008 506.89 234.465 510.499C236.57 511.519 238.797 511.999 240.988 511.999C246.559 511.999 251.91 508.882 254.5 503.53L269.5 472.53C273.109 465.073 269.988 456.101 262.531 452.495V452.495Z" fill="#163C6E"/>
<path d="M338.531 452.495C331.074 448.886 322.105 452.007 318.496 459.464L303.496 490.464C299.89 497.921 303.008 506.89 310.465 510.499C312.57 511.519 314.797 511.999 316.988 511.999C322.558 511.999 327.91 508.882 330.5 503.53L345.5 472.53C349.109 465.073 345.988 456.101 338.531 452.495V452.495Z" fill="#163C6E"/>
<path d="M414.531 452.495C407.074 448.886 398.101 452.007 394.496 459.464L379.496 490.464C375.887 497.921 379.008 506.89 386.465 510.499C388.57 511.519 390.797 511.999 392.988 511.999C398.558 511.999 403.91 508.882 406.5 503.53L421.5 472.53C425.109 465.073 421.988 456.101 414.531 452.495V452.495Z" fill="#163C6E"/>
<path d="M60.0005 196C60.0005 187.715 53.2856 181 45.0005 181H15.0005C6.71533 181 0.000488281 187.715 0.000488281 196C0.000488281 204.281 6.71533 211 15.0005 211H45.0005C53.2856 211 60.0005 204.281 60.0005 196Z" fill="#163C6E"/>
<path d="M195 0C186.715 0 180 6.71484 180 15V46C180 54.2852 186.715 61 195 61C203.285 61 210 54.2852 210 46V15C210 6.71484 203.285 0 195 0Z" fill="#163C6E"/>
<path d="M117.309 32.0665C113.164 24.8907 103.992 22.4337 96.8166 26.5743C89.6448 30.7188 87.1838 39.8907 91.3284 47.0665L106.828 73.9141C109.606 78.7266 114.649 81.4141 119.832 81.4141C122.375 81.4141 124.953 80.7657 127.317 79.4024C134.492 75.2618 136.949 66.086 132.809 58.9141L117.309 32.0665Z" fill="#163C6E"/>
<path d="M30.5668 119.172L57.4144 134.672C59.7738 136.035 62.3558 136.683 64.8988 136.683C70.0824 136.683 75.1254 133.996 77.9027 129.183C82.0472 122.008 79.5863 112.836 72.4144 108.691L45.5668 93.1913C38.391 89.0467 29.2191 91.5077 25.0785 98.6834C20.9339 105.855 23.391 115.031 30.5668 119.172Z" fill="#163C6E"/>
<path d="M57.9144 259.191L31.0668 274.691C23.891 278.832 21.4339 288.007 25.5785 295.179C28.3558 299.996 33.3949 302.683 38.5824 302.683C41.1254 302.683 43.7035 302.035 46.0668 300.671L72.9144 285.171C80.0863 281.031 82.5472 271.855 78.4027 264.679C74.2621 257.507 65.0863 255.046 57.9144 259.191V259.191Z" fill="#163C6E"/>
<path d="M293.316 26.0743C286.141 21.9337 276.969 24.3907 272.824 31.5665L257.324 58.4141C253.184 65.586 255.641 74.7618 262.816 78.9024C265.18 80.2657 267.758 80.9141 270.301 80.9141C275.484 80.9141 280.527 78.2227 283.305 73.4141L298.805 46.5665C302.949 39.3907 300.492 30.2188 293.316 26.0743Z" fill="#163C6E"/>
</svg>
